<?xml version="1.0" encoding="utf-8"?>
<!-- Generator: Adobe Illustrator 16.0.0, SVG Export Plug-In . SVG Version: 6.00 Build 0)  -->
<!DOCTYPE svg PUBLIC "-//W3C//DTD SVG 1.1//EN" "http://www.w3.org/Graphics/SVG/1.1/DTD/svg11.dtd">
<svg version="1.1" id="Layer_1" xmlns="http://www.w3.org/2000/svg" xmlns:xlink="http://www.w3.org/1999/xlink" x="0px" y="0px"
	 width="841.89px" height="595.28px" viewBox="0 0 841.89 595.28" enable-background="new 0 0 841.89 595.28" xml:space="preserve">
<g>
	<g>
		<path fill="#333333" d="M272.574,365.007c-4.661-1.109-12.667-9.228-20.423-18.318c-1.533-1.797-3.052-3.633-4.537-5.459
			l-44.374-0.346c12.34,16.519,31.188,39.65,50.745,55.767l-0.012,0.011l0.156,0.108c5.523,4.542,11.1,8.539,16.604,11.651
			L270.34,408l2.599,1.802l0.084,0.053l5.172-3.313c5.508-2.613,11.565-6.649,17.613-11.297l0.005-0.003h-0.002
			c3.729-2.863,7.445-5.958,11.033-9.099c10.896-8.546,20.263-18.013,28.286-27.694l0.007-0.011l-0.004,0.004
			c0.12-0.145,0.232-0.29,0.352-0.436v-16.096l-34.041-0.264C291.282,351.839,278.68,363.452,272.574,365.007z"/>
		<polygon fill="#333333" points="368.358,271.456 363.885,268.882 326.083,247.046 335.7,271.369 		"/>
		<polygon fill="#333333" points="347.152,340.113 346.952,341.578 347.708,341.578 350.742,341.578 348.845,355.597 
			350.408,355.597 352.302,341.578 356.204,341.578 356.404,340.113 348.696,340.113 		"/>
		<path fill="#333333" d="M382.075,340.113l-8.919,15.483h1.729l2.895-5.065h6.562l1.693,5.065h1.591l-5.191-15.483H382.075z
			 M378.65,349.07l3.291-5.712l1.911,5.712H378.65z"/>
		<polygon fill="#333333" points="417.816,340.113 410.588,346.39 411.441,340.113 409.913,340.113 407.819,355.597 
			409.337,355.597 410.38,348.14 416.942,355.597 418.912,355.597 411.662,347.356 420.04,340.113 		"/>
		<polygon fill="#333333" points="438.461,355.597 446.986,355.597 447.165,354.11 440.221,354.11 441.025,348.175 447.963,348.175 
			448.163,346.692 441.226,346.692 441.91,341.62 448.848,341.62 449.069,340.113 440.555,340.113 		"/>
		<path fill="#333333" d="M489.549,339.724c-2.659,0-4.883,0.863-6.67,2.589c-1.792,1.728-2.688,3.828-2.688,6.305
			c0,2.399,0.896,4.32,2.688,5.757c1.345,1.075,3.087,1.613,5.23,1.613c1.155,0,2.178-0.141,3.063-0.422
			c0.882-0.277,1.939-0.818,3.169-1.623l-0.864-1.229c-1.658,1.212-3.442,1.819-5.357,1.819c-1.257,0-2.371-0.253-3.348-0.762
			c-0.977-0.51-1.721-1.216-2.237-2.115c-0.517-0.896-0.772-1.925-0.772-3.084c0-1.3,0.334-2.516,1.004-3.646
			c0.672-1.131,1.603-2.026,2.789-2.693c1.191-0.668,2.47-1.001,3.836-1.001c2.101,0,3.97,0.769,5.61,2.314l0.938-1.296
			c-1.054-0.917-2.076-1.57-3.073-1.953C491.867,339.916,490.765,339.724,489.549,339.724z"/>
		<path fill="#333333" d="M524.841,339.724c-1.745,0-3.33,0.396-4.753,1.184c-1.419,0.79-2.532,1.879-3.333,3.27
			c-0.805,1.388-1.208,2.916-1.208,4.577c0,2.153,0.671,3.899,2.013,5.23c1.338,1.335,3.126,2.003,5.356,2.003
			c2.624,0,4.816-0.868,6.572-2.6c1.76-1.736,2.638-3.875,2.638-6.422c0-2.094-0.695-3.821-2.079-5.191
			C528.659,340.408,526.928,339.724,524.841,339.724z M529.563,350.735c-0.679,1.19-1.609,2.121-2.793,2.793
			c-1.188,0.67-2.477,1.004-3.864,1.004c-1.173,0-2.191-0.238-3.06-0.717c-0.864-0.478-1.545-1.166-2.033-2.068
			c-0.492-0.902-0.738-1.922-0.738-3.06c0-1.342,0.338-2.606,1.016-3.794s1.598-2.104,2.757-2.747
			c1.163-0.646,2.483-0.969,3.963-0.969c1.496,0,2.774,0.445,3.843,1.338c1.285,1.071,1.925,2.525,1.925,4.359
			C530.577,348.259,530.24,349.544,529.563,350.735z"/>
		<polygon fill="#333333" points="563.08,352.073 554.376,340.113 554.038,340.113 551.945,355.597 553.483,355.597 
			555.106,343.649 563.786,355.597 564.123,355.597 566.217,340.113 564.706,340.113 		"/>
		<polygon fill="#333333" points="585.84,341.578 589.625,341.578 587.732,355.597 589.293,355.597 591.189,341.578 
			595.088,341.578 595.289,340.113 586.035,340.113 		"/>
		<path fill="#333333" d="M622.131,340.507c-0.598-0.261-1.588-0.394-2.973-0.394h-3.889l-2.098,15.483h1.564l0.99-7.327h1.227
			l4.664,7.327h1.756l-4.674-7.327c1.236,0,2.232-0.179,2.988-0.541c0.76-0.362,1.355-0.899,1.795-1.616s0.66-1.489,0.66-2.325
			c0-0.766-0.186-1.437-0.559-2.016C623.213,341.191,622.729,340.77,622.131,340.507z M621.947,345.603
			c-0.418,0.496-0.965,0.826-1.646,0.994c-0.408,0.105-1.271,0.158-2.59,0.158h-1.781l0.697-5.146h2.65
			c1.166,0,1.975,0.141,2.424,0.429c0.58,0.365,0.871,0.948,0.871,1.756C622.572,344.507,622.365,345.111,621.947,345.603z"/>
		<path fill="#333333" d="M653.404,339.724c-1.75,0-3.334,0.396-4.754,1.184c-1.422,0.79-2.531,1.879-3.336,3.27
			c-0.805,1.388-1.205,2.916-1.205,4.577c0,2.153,0.67,3.899,2.01,5.23c1.342,1.335,3.125,2.003,5.355,2.003
			c2.629,0,4.816-0.868,6.576-2.6c1.756-1.736,2.635-3.875,2.635-6.422c0-2.094-0.691-3.821-2.08-5.191
			C657.223,340.408,655.486,339.724,653.404,339.724z M658.125,350.735c-0.678,1.19-1.609,2.121-2.797,2.793
			c-1.188,0.67-2.473,1.004-3.863,1.004c-1.17,0-2.188-0.238-3.057-0.717c-0.867-0.478-1.545-1.166-2.037-2.068
			s-0.738-1.922-0.738-3.06c0-1.343,0.342-2.606,1.02-3.794c0.674-1.188,1.596-2.104,2.758-2.747
			c1.158-0.646,2.48-0.969,3.963-0.969c1.492,0,2.773,0.445,3.838,1.338c1.287,1.071,1.93,2.525,1.93,4.359
			C659.141,348.259,658.799,349.544,658.125,350.735z"/>
		<polygon fill="#333333" points="682.27,354.132 684.178,340.113 682.621,340.113 680.527,355.597 688.779,355.597 
			688.959,354.132 		"/>
		<path fill="#333333" d="M225.742,334.816c5.429,0,10.149-1.163,14.138-3.408c1.857-1.046,3.571-2.307,5.098-3.832
			c4.8-4.802,7.259-11.328,7.308-19.393l0.01-1.809h-24.836v7.837v0.514h0.346h14.962c-0.841,3.177-2.545,5.783-5.171,7.926
			c-0.906,0.738-1.87,1.357-2.881,1.883c-2.566,1.332-5.48,1.999-8.838,1.999c-3.85,0-7.437-0.893-10.658-2.646
			c-3.204-1.745-5.747-4.173-7.552-7.208c-1.169-1.962-1.925-4.02-2.343-6.132c-0.229-1.156-0.385-2.324-0.385-3.513
			c0-3.275,0.883-6.432,2.629-9.382c1.742-2.947,4.243-5.322,7.429-7.053c5.785-3.141,12.213-3.583,19.028-0.678
			c3.049,1.3,5.897,3.242,8.469,5.771l1.237,1.219l6.456-6.115l-1.377-1.307c-3.653-3.463-7.468-6.022-11.339-7.606
			c-3.885-1.589-8.081-2.397-12.466-2.397c-5.439,0-10.398,1.221-14.736,3.627c-0.383,0.212-0.722,0.474-1.092,0.703
			c-3.518,2.168-6.413,5.012-8.626,8.491c-0.195,0.306-0.422,0.582-0.606,0.896c-2.494,4.279-3.76,8.966-3.76,13.932
			c0,2.886,0.436,5.628,1.253,8.232c1.077,3.432,2.832,6.619,5.307,9.513C208.391,331.472,216.125,334.816,225.742,334.816z"/>
		<path fill="#333333" d="M265.625,331.665c3.123,2.09,6.896,3.151,11.212,3.151c4.054,0,7.575-1.142,10.464-3.397
			c2.857-2.227,4.798-4.903,5.764-7.956c0.912-2.873,1.374-6.643,1.374-11.206v-31.532h-8.52v31.532
			c0,4.623-0.239,6.488-0.439,7.233c-0.4,1.485-1.029,2.761-1.865,3.783s-1.855,1.802-3.112,2.385
			c-2.728,1.262-5.785,1.135-8.753-0.277c-1.553-0.737-2.7-1.637-3.404-2.67c-0.727-1.064-1.202-2.438-1.416-4.131
			c-0.067-0.438-0.181-1.844-0.181-6.323v-31.532h-8.518v31.532c0,5.234,0.321,8.807,0.981,10.907
			C260.294,326.681,262.451,329.543,265.625,331.665z"/>
		<path fill="#333333" d="M333.81,297.408l-7.779-16.683h-3.49l-24.97,52.854h9.467l7.676-16.207h8.042h10.901l7.749,16.207h9.273
			L333.81,297.408z M327.929,309.02h-9.265l5.596-11.82l4.695,9.968l0.872,1.852H327.929z"/>
		<path fill="#333333" d="M379.988,308.96c2.67-1.184,4.76-2.968,6.211-5.304c1.433-2.315,2.16-5.012,2.16-8.023
			c0-3.634-1.064-6.757-3.161-9.281c-2.08-2.501-4.81-4.152-8.111-4.911c-0.141-0.032-0.308-0.061-0.464-0.09
			c-2.169-0.419-5.78-0.626-11.058-0.626H353.96v51.017v1.837h8.518v-17.327v-5.546l1.674,2.149l16.143,20.724h10.637l-17.83-23.026
			C375.861,310.313,378.134,309.785,379.988,308.96z M368.916,302.354l-6.438-0.051v-13.159h6.889c2.062,0,3.531,0.114,4.596,0.27
			c0.951,0.14,1.58,0.313,1.98,0.471c1.116,0.446,1.995,1.173,2.687,2.22c0.703,1.057,1.044,2.206,1.044,3.509
			c0,1.359-0.341,2.546-1.04,3.635c-0.678,1.056-1.605,1.806-2.838,2.294c-0.935,0.372-2.842,0.812-6.618,0.812L368.916,302.354z"/>
		<path fill="#333333" d="M436.065,292.022c-2.898-4.449-6.973-7.619-12.105-9.417c-3.555-1.265-8.999-1.879-16.64-1.879h-12.01
			v52.854h17.469c6.404,0,11.501-0.973,15.15-2.887c3.699-1.939,6.737-4.971,9.031-9.011c2.276-4.008,3.432-8.689,3.432-13.912
			C440.393,301.728,438.935,296.431,436.065,292.022z M428.935,318.338c-1.907,2.817-4.462,4.718-7.802,5.803
			c-2.448,0.787-7.025,1.188-13.611,1.188h-3.893v-36.183h1.683c6.867,0,11.816,0.446,14.711,1.328
			c3.737,1.134,6.565,3.168,8.648,6.217c2.079,3.049,3.133,6.806,3.133,11.163C431.804,311.995,430.838,315.521,428.935,318.338z"/>
	</g>
	<g>
		<path fill="#4788C8" d="M152.346,196.729c0,0-1.313,37.966,10.033,74.182l41.774,0.11c-6.588-17.245-15.882-43.588-13.511-49.234
			c0,0,90.633-23.544,190.782,41.564l-0.273-33.694C273.604,155.82,152.346,196.729,152.346,196.729z"/>
		<path fill="#4788C8" d="M463.394,303.691c-3.555-2.626-5.648-4.247-6.288-4.865c-1.169-1.17-1.978-2.252-2.416-3.245
			c-0.442-0.992-0.664-2.018-0.664-3.077c0-1.744,0.625-3.21,1.872-4.403c1.243-1.191,2.849-1.786,4.813-1.786
			c1.524,0,2.93,0.386,4.223,1.157c1.289,0.773,2.849,2.373,4.682,4.8l3.97-3.012c-2.227-3.045-4.338-5.136-6.337-6.27
			c-1.995-1.138-4.142-1.706-6.436-1.706c-2.163,0-4.166,0.502-6.007,1.505c-1.844,1.004-3.27,2.378-4.285,4.12
			c-1.015,1.744-1.524,3.674-1.524,5.792c0,2.669,0.86,5.151,2.582,7.447c0.994,1.366,3.52,3.585,7.58,6.651
			c4.036,3.043,6.814,5.648,8.339,7.811c1.104,1.565,1.655,3.164,1.655,4.797c0,1.434-0.376,2.793-1.124,4.071
			c-0.752,1.278-1.845,2.301-3.277,3.06c-1.438,0.763-2.969,1.142-4.602,1.142c-3.815,0-7.181-2.68-10.093-8.04l-4.138,2.483
			c2.03,3.705,4.247,6.347,6.653,7.924c2.402,1.577,5.083,2.368,8.04,2.368c3.84,0,7.1-1.304,9.779-3.906
			c2.681-2.603,4.022-5.67,4.022-9.2c0-2.448-0.783-4.887-2.351-7.313C470.496,309.571,467.605,306.802,463.394,303.691z"/>
		<polygon fill="#4788C8" points="484.736,331.19 512.438,331.19 512.438,326.424 489.602,326.424 489.602,307.299 512.438,307.299 
			512.438,302.532 489.602,302.532 489.602,287.276 512.635,287.276 512.635,282.51 484.736,282.51 		"/>
		<path fill="#4788C8" d="M534.347,288.882c3.309-1.865,6.902-2.796,10.787-2.796c3.552,0,6.812,0.71,9.779,2.132
			c2.968,1.424,5.508,3.515,7.626,6.274l3.84-2.947c-2.336-3.242-5.34-5.763-9-7.561c-3.664-1.798-7.767-2.698-12.312-2.698
			c-7.524,0-13.784,2.433-18.782,7.297c-4.995,4.865-7.493,10.861-7.493,17.986c0,6.774,2.063,12.556,6.186,17.34
			c4.922,5.673,11.638,8.508,20.156,8.508c4.479,0,8.532-0.847,12.161-2.533c3.628-1.689,6.656-4.074,9.084-7.165l-3.84-2.912
			c-4.588,5.339-10.292,8.009-17.106,8.009c-6.2,0-11.336-1.985-15.407-5.958c-4.071-3.969-6.104-8.921-6.104-14.857
			c0-3.928,0.909-7.463,2.729-10.606C528.47,293.25,531.034,290.745,534.347,288.882z"/>
		<path fill="#4788C8" d="M603.676,311.896c0,3.839-0.164,6.378-0.494,7.611c-0.465,1.721-1.191,3.189-2.186,4.401
			c-0.994,1.215-2.227,2.164-3.705,2.849c-1.479,0.682-3.025,1.025-4.633,1.025c-1.855,0-3.695-0.436-5.527-1.307
			s-3.189-1.953-4.07-3.245c-0.885-1.289-1.447-2.895-1.689-4.816c-0.131-0.856-0.197-3.031-0.197-6.519V282.51h-4.865v29.387
			c0,4.941,0.299,8.363,0.893,10.26c0.949,3.091,2.824,5.571,5.627,7.447c2.801,1.875,6.166,2.813,10.092,2.813
			c3.619,0,6.703-0.994,9.254-2.979c2.547-1.985,4.246-4.321,5.092-7.001c0.852-2.681,1.275-6.193,1.275-10.541V282.51h-4.865
			V311.896z"/>
		<path fill="#4788C8" d="M644.021,307.014c2.314-1.025,4.096-2.545,5.342-4.556c1.248-2.009,1.873-4.341,1.873-6.992
			c0-3.181-0.906-5.859-2.715-8.035c-1.809-2.176-4.16-3.595-7.051-4.257c-1.918-0.443-5.582-0.664-10.986-0.664h-9.695v48.681
			h4.865v-22.603h2.75l17.508,22.603h6.016l-17.504-22.603C638.506,308.566,641.703,308.041,644.021,307.014z M625.654,303.822
			v-16.546h8.584c3.338,0,5.723,0.287,7.16,0.861c1.436,0.572,2.596,1.528,3.48,2.863s1.328,2.817,1.328,4.451
			c0,1.677-0.439,3.193-1.311,4.55c-0.875,1.357-2.09,2.345-3.646,2.963c-1.561,0.618-3.963,0.926-7.211,0.926L625.654,303.822z"/>
		<polygon fill="#4788C8" points="689.59,287.276 689.59,282.51 661.693,282.51 661.693,331.19 689.391,331.19 689.391,326.424 
			666.559,326.424 666.559,307.299 689.391,307.299 689.391,302.532 666.559,302.532 666.559,287.276 		"/>
	</g>
</g>
</svg>
